<svg width="120" height="120" viewBox="0 0 120 120" fill="none" xmlns="http://www.w3.org/2000/svg">
<g clip-path="url(#clip0)">
<path d="M0 0L11.2493 108.331L59.9996 120L108.749 108.331L120 0H0Z" fill="#1758A7"/>
<path d="M59.999 8.77484V110.694L60.109 110.72L99.5603 101.278L108.666 8.77484H59.999Z" fill="#379AD6"/>
<path d="M59.8619 82.9813L59.8356 82.9884L43.5485 79.2981L42.5614 68.6705H27.4258L29.3998 89.188L60 97.3063V82.9468L59.8619 82.9813Z" fill="#E8E8E7"/>
<path d="M60 48.6299V61.6644H60.0435L78.1329 61.6823L76.9719 78.7206L60.0435 82.9598L60 82.9709V97.2913L60.0435 97.303L60.0555 97.3063L90.7373 89.3407L94.7179 48.6299H60Z" fill="#FBFBFA"/>
<path d="M25.2852 48.6299L26.437 61.6508L26.4388 61.6713L60.0005 61.6732V48.6299H25.2852Z" fill="#E5E4E2"/>
<path d="M25.2871 48.6298H59.9151L60.0002 48.597V35.5833L25.2871 48.6298Z" fill="#EEEEEE"/>
<path d="M62.0289 34.95L60 35.7052V48.627L95.7951 34.95H62.0289Z" fill="white"/>
<path d="M22.0674 21.9077L23.8814 34.9499H60.0006V21.9077H22.0674Z" fill="#E7E7E6"/>
<path d="M60 34.9499L97.2159 21.9077H60V34.9499ZM60.0099 34.9499H95.7341L97.2163 21.9077L60.0099 34.9499Z" fill="#F8F8F7"/>
</g>
<defs>
<clipPath id="clip0">
<rect width="120" height="120" fill="white"/>
</clipPath>
</defs>
</svg>
