<svg width="120" height="120" viewBox="0 0 120 120" fill="none" xmlns="http://www.w3.org/2000/svg">
<path fill-rule="evenodd" clip-rule="evenodd" d="M69.1934 44.8233H79.7928V58.533H85.1394C87.5782 58.533 90.1108 57.9369 92.4558 56.9832C93.5814 56.5063 94.8946 55.791 96.0202 54.9565C94.5194 52.453 93.769 49.3534 93.5814 46.2539C93.3 42.0813 93.9566 36.5975 96.2078 33.3787L97.3334 31.7097L98.6466 33.021C102.023 36.4783 104.744 41.1276 105.306 46.6115C109.34 45.0617 114.03 45.4194 117.594 48.0421L119.001 49.115L118.251 51.0224C115.249 58.4137 108.965 60.798 102.868 60.3212C93.6752 89.2903 73.7896 103 49.5893 103C37.1139 103 25.6704 97.0393 19.1044 82.972L19.0106 82.7335L18.0726 80.23C15.8214 74.0309 15.1648 67.2356 15.6338 60.4404L15.8214 58.4137H24.8262V44.8233H35.4255V31.4712H56.5305V18H69.1934V44.8233V44.8233Z" fill="#3A4D54"/>
<path d="M103.523 49.9495C104.274 42.9159 100.147 37.432 97.5202 34.8093C94.6124 39.101 94.1434 50.5456 98.7396 55.3142C96.1132 58.1753 90.7666 60.9173 85.1386 60.9173H17.4152C16.8524 68.3086 17.8842 75.1038 20.2292 80.9453L20.9796 82.7335C21.4486 83.8065 22.0114 84.7602 22.5742 85.8331C25.3882 86.0715 27.9208 86.1908 30.2658 86.0715C34.862 85.9523 38.614 85.237 41.5217 84.0449C41.9907 83.8065 42.3659 84.1641 42.5535 84.641C42.7411 85.237 42.4597 85.7139 42.0845 85.9523C41.7093 86.0715 41.3341 86.31 40.8651 86.4292C38.614 87.2637 36.1752 87.7405 33.0798 87.979H32.517C31.2976 88.0982 29.9844 88.0982 28.5774 88.0982C27.0766 88.0982 25.6696 88.0982 23.9812 87.979C29.6092 96.0856 38.4264 100.854 49.4947 100.854C72.9447 100.854 92.8302 87.6213 101.554 58.0561C107.838 58.8906 113.841 56.864 116.562 50.0687C112.341 46.8499 106.713 47.9229 103.523 49.9495V49.9495Z" fill="#00AADA"/>
<path d="M103.523 49.9495C104.274 42.9159 100.146 37.432 97.52 34.8093C94.6122 39.101 94.1432 50.5456 98.7394 55.3142C96.113 58.1753 90.7664 60.9173 85.1385 60.9173H21.3546C21.0732 72.2426 24.3562 80.8261 30.2656 85.9523C34.8618 85.8331 38.6138 85.1178 41.5216 83.9257C41.9906 83.6872 42.3658 84.0449 42.5534 84.5217C42.741 85.1178 42.4596 85.5947 42.0844 85.8331C41.7092 85.9523 41.334 86.1908 40.865 86.31C38.6138 87.1445 35.9874 87.7405 32.892 87.979L32.7982 87.8598C40.7712 93.1052 52.3085 92.986 65.6281 86.5484C80.4485 79.2763 94.3308 65.4474 103.992 49.7111C103.805 49.8303 103.617 49.8303 103.523 49.9495V49.9495Z" fill="#28B8EB"/>
<path d="M17.5088 69.8583C17.884 73.7924 18.822 77.4881 20.229 80.9453L20.9794 82.7335C21.4484 83.8064 22.0112 84.7602 22.574 85.8331C25.388 86.0715 27.9206 86.1907 30.2656 86.0715C34.8617 85.9523 38.6137 85.237 41.5215 84.0449C41.9905 83.8064 42.3657 84.1641 42.5533 84.6409C42.7409 85.237 42.4595 85.7139 42.0843 85.9523C41.7091 86.0715 41.3339 86.3099 40.8649 86.4292C38.6137 87.2637 35.9873 87.8597 32.8919 88.0982H32.5167C31.2974 88.2174 29.9842 88.2174 28.671 88.2174C27.1702 88.2174 25.6694 88.2174 24.0748 88.0982C29.7028 96.2048 38.6137 100.973 49.6821 100.973C69.7552 100.973 87.202 91.317 97.3324 69.9776H17.5088V69.8583V69.8583Z" fill="#028BB8"/>
<path d="M22.0107 69.8583C23.2301 76.7728 26.0441 82.2567 30.2651 85.9523C34.8613 85.8331 38.6133 85.1178 41.5211 83.9257C41.9901 83.6872 42.3653 84.0449 42.5529 84.5217C42.7405 85.1178 42.4591 85.5947 42.0839 85.8331C41.7087 85.9523 41.3335 86.1907 40.8645 86.3099C38.6133 87.1445 35.9869 87.7405 32.7977 87.979C40.7707 93.2244 52.3081 93.1052 65.5338 86.6676C73.5068 82.7335 81.2922 76.892 88.2334 69.8583H22.0107V69.8583Z" fill="#019BC6"/>
<path fill-rule="evenodd" clip-rule="evenodd" d="M26.6064 47.0884H35.7988V58.7714H26.6064V47.0884V47.0884ZM27.3568 48.0421H28.1072V57.6985H27.3568V48.0421ZM28.67 48.0421H29.4204V57.6985H28.67V48.0421ZM30.077 48.0421H30.8274V57.6985H30.077V48.0421ZM31.484 48.0421H32.2344V57.6985H31.484V48.0421ZM32.891 48.0421H33.6414V57.6985H32.891V48.0421ZM34.298 48.0421H35.0484V57.6985H34.298V48.0421ZM37.112 33.7363H46.3044V45.4194H37.112V33.7363V33.7363ZM37.9562 34.69H38.7066V44.3464H37.9562V34.69ZM39.2694 34.69H40.0198V44.3464H39.2694V34.69ZM40.6764 34.69H41.4268V44.3464H40.6764V34.69ZM42.0834 34.69H42.8338V44.3464H42.0834V34.69ZM43.3966 34.69H44.147V44.3464H43.3966V34.69ZM44.8036 34.69H45.554V44.3464H44.8036V34.69Z" fill="#00ACD3"/>
<path fill-rule="evenodd" clip-rule="evenodd" d="M37.1133 47.0884H46.3057V58.7714H37.1133V47.0884V47.0884ZM37.9575 48.0421H38.7079V57.6985H37.9575V48.0421ZM39.2707 48.0421H40.0211V57.6985H39.2707V48.0421ZM40.6777 48.0421H41.4281V57.6985H40.6777V48.0421ZM42.0847 48.0421H42.8351V57.6985H42.0847V48.0421ZM43.3979 48.0421H44.1483V57.6985H43.3979V48.0421ZM44.8049 48.0421H45.5553V57.6985H44.8049V48.0421Z" fill="#23C2EE"/>
<path fill-rule="evenodd" clip-rule="evenodd" d="M47.7129 47.0884H56.9053V58.7714H47.7129V47.0884V47.0884ZM48.4633 48.0421H49.2137V57.6985H48.4633V48.0421ZM49.8703 48.0421H50.6207V57.6985H49.8703V48.0421ZM51.2773 48.0421H52.0277V57.6985H51.2773V48.0421ZM52.5905 48.0421H53.3409V57.6985H52.5905V48.0421ZM53.9975 48.0421H54.7479V57.6985H53.9975V48.0421ZM55.4045 48.0421H56.1549V57.6985H55.4045V48.0421Z" fill="#00ACD3"/>
<path fill-rule="evenodd" clip-rule="evenodd" d="M47.7129 33.7363H56.9053V45.4194H47.7129V33.7363V33.7363ZM48.4633 34.69H49.2137V44.3464H48.4633V34.69ZM49.8703 34.69H50.6207V44.3464H49.8703V34.69ZM51.2773 34.69H52.0277V44.3464H51.2773V34.69ZM52.5905 34.69H53.3409V44.3464H52.5905V34.69ZM53.9975 34.69H54.7479V44.3464H53.9975V34.69ZM55.4045 34.69H56.1549V44.3464H55.4045V34.69ZM58.3123 47.0884H67.5046V58.7714H58.3123V47.0884ZM59.0627 48.0421H59.8131V57.6985H59.0627V48.0421ZM60.4697 48.0421H61.2201V57.6985H60.4697V48.0421ZM61.7829 48.0421H62.5332V57.6985H61.7829V48.0421ZM63.1899 48.0421H63.9402V57.6985H63.1899V48.0421ZM64.5968 48.0421H65.3472V57.6985H64.5968V48.0421ZM66.0038 48.0421H66.7542V57.6985H66.0038V48.0421Z" fill="#23C2EE"/>
<path fill-rule="evenodd" clip-rule="evenodd" d="M58.3105 33.7363H67.5029V45.4194H58.3105V33.7363ZM59.0609 34.69H59.8113V44.3464H59.0609V34.69ZM60.4679 34.69H61.2183V44.3464H60.4679V34.69ZM61.7811 34.69H62.5315V44.3464H61.7811V34.69ZM63.1881 34.69H63.9385V44.3464H63.1881V34.69ZM64.5951 34.69H65.3455V44.3464H64.5951V34.69ZM66.0021 34.69H66.7525V44.3464H66.0021V34.69Z" fill="#00ACD3"/>
<path fill-rule="evenodd" clip-rule="evenodd" d="M58.3105 20.2651H67.5029V31.9481H58.3105V20.2651ZM59.0609 21.2188H59.8113V30.8752H59.0609V21.2188ZM60.4679 21.2188H61.2183V30.8752H60.4679V21.2188ZM61.7811 21.2188H62.5315V30.8752H61.7811V21.2188ZM63.1881 21.2188H63.9385V30.8752H63.1881V21.2188ZM64.5951 21.2188H65.3455V30.8752H64.5951V21.2188ZM66.0021 21.2188H66.7525V30.8752H66.0021V21.2188Z" fill="#23C2EE"/>
<path fill-rule="evenodd" clip-rule="evenodd" d="M68.9102 47.0884H78.1025V58.7714H68.9102V47.0884ZM69.6606 48.0421H70.411V57.6985H69.6606V48.0421ZM70.9737 48.0421H71.7241V57.6985H70.9737V48.0421ZM72.3807 48.0421H73.1311V57.6985H72.3807V48.0421ZM73.7877 48.0421H74.5381V57.6985H73.7877V48.0421ZM75.1947 48.0421H75.9451V57.6985H75.1947V48.0421ZM76.6017 48.0421H77.3521V57.6985H76.6017V48.0421Z" fill="#00ACD3"/>
<path fill-rule="evenodd" clip-rule="evenodd" d="M45.7426 77.6073C47.1496 77.6073 48.2751 79.0379 48.2751 80.8261C48.2751 82.6143 47.1496 84.0449 45.7426 84.0449C44.3356 84.0449 43.21 82.6143 43.21 80.8261C43.21 79.0379 44.3356 77.6073 45.7426 77.6073Z" fill="#D4EEF1"/>
<path fill-rule="evenodd" clip-rule="evenodd" d="M45.7425 78.5611C45.9301 78.5611 46.2115 78.5611 46.3991 78.6803C46.2115 78.7995 46.0239 79.1571 46.0239 79.5148C46.0239 79.9916 46.3991 80.4685 46.7743 80.4685C47.0557 80.4685 47.3371 80.2301 47.4309 79.9916C47.5247 80.2301 47.5247 80.5877 47.5247 80.8261C47.5247 82.1375 46.6805 83.0912 45.7425 83.0912C44.7107 83.0912 43.9603 82.0183 43.9603 80.8261C43.9603 79.634 44.7107 78.5611 45.7425 78.5611V78.5611ZM1 71.0505H118.625C116.092 70.216 110.558 69.1431 111.402 64.8514C106.712 71.6466 95.5502 69.62 92.6424 66.282C89.4532 72.1235 71.0684 69.8584 69.849 65.3282C65.9094 71.289 53.6217 71.289 49.6821 65.3282C48.3689 69.8584 29.9841 72.1235 26.8887 66.282C24.0747 69.62 12.8188 71.6466 8.12878 64.8514C9.16058 69.0239 3.53259 70.216 1 71.0505" fill="#3A4D54"/>
<path d="M52.4967 100.854C46.2121 97.0393 42.8353 91.9131 40.8655 86.31C38.5205 87.1445 35.7065 87.7406 32.5173 87.979C31.2979 88.0982 29.9847 88.0982 28.6715 88.0982C27.0769 88.0982 25.4823 88.0982 23.7939 87.979C29.4219 95.1319 36.5507 100.735 49.5889 100.854H52.4967V100.854Z" fill="#BFDBE0"/>
<path d="M43.2107 91.4362C42.3665 89.8864 41.5224 88.0982 40.8658 86.31C38.5208 87.1445 35.7068 87.7406 32.5176 87.979C34.675 89.4096 37.8642 90.8402 43.2107 91.4362V91.4362Z" fill="#D4EEF1"/>
</svg>
