<svg width="120" height="120" viewBox="0 0 120 120" fill="none" xmlns="http://www.w3.org/2000/svg">
<path fill-rule="evenodd" clip-rule="evenodd" d="M59.0771 30.3922H110.77V51.3153H59.0771V30.3922Z" fill="white"/>
<path fill-rule="evenodd" clip-rule="evenodd" d="M12.3077 98.6999C7.7551 98.6999 3.78893 96.2217 1.6597 92.546C0.610463 94.3577 0 96.4556 0 98.6999C0 105.497 5.51017 111.008 12.3077 111.008H24.6154V98.6999H12.3077Z" fill="#3ECC5F"/>
<path fill-rule="evenodd" clip-rule="evenodd" d="M67.6804 33.7004L110.77 31.0074V24.8536C110.77 18.056 105.259 12.5459 98.462 12.5459H43.0773L41.5388 9.88124C41.3825 9.61169 41.1581 9.38794 40.8881 9.2324C40.6181 9.07686 40.3119 8.995 40.0003 8.995C39.6887 8.995 39.3826 9.07686 39.1126 9.2324C38.8426 9.38794 38.6182 9.61169 38.4619 9.88124L36.9234 12.5459L35.3849 9.88124C35.2286 9.61169 35.0042 9.38794 34.7342 9.2324C34.4642 9.07686 34.1581 8.995 33.8465 8.995C33.5349 8.995 33.2287 9.07686 32.9587 9.2324C32.6887 9.38794 32.4643 9.61169 32.308 9.88124L30.7695 12.5459L29.2311 9.88124C29.0748 9.61169 28.8504 9.38794 28.5803 9.2324C28.3103 9.07686 28.0042 8.995 27.6926 8.995C27.381 8.995 27.0749 9.07686 26.8049 9.2324C26.5349 9.38794 26.3105 9.61169 26.1541 9.88124L24.6157 12.5459C24.6021 12.5459 24.5892 12.5477 24.5757 12.5477L22.0267 10C21.806 9.7802 21.5314 9.62224 21.2303 9.54193C20.9293 9.46163 20.6125 9.46181 20.3116 9.54244C20.0107 9.62308 19.7362 9.78135 19.5157 10.0014C19.2952 10.2215 19.1363 10.4956 19.055 10.7963L18.2132 13.9372L15.0175 13.0806C14.7164 13.0006 14.3995 13.0011 14.0986 13.0821C13.7977 13.1631 13.5234 13.3217 13.3031 13.5421C13.0828 13.7624 12.9242 14.0368 12.8433 14.3377C12.7624 14.6386 12.762 14.9555 12.8421 15.2566L13.7036 18.4523L10.5633 19.2936C10.2624 19.3747 9.98811 19.5335 9.76789 19.754C9.54767 19.9746 9.38927 20.2491 9.30856 20.5501C9.22785 20.8512 9.22766 21.1681 9.30802 21.4692C9.38837 21.7704 9.54645 22.0451 9.76641 22.2659L12.308 24.8148C12.308 24.8271 12.3067 24.8407 12.3067 24.8542L9.6421 26.3927C9.37255 26.549 9.1488 26.7734 8.99327 27.0434C8.83773 27.3134 8.75586 27.6195 8.75586 27.9311C8.75586 28.2427 8.83773 28.5489 8.99327 28.8189C9.1488 29.0889 9.37255 29.3133 9.6421 29.4696L12.308 31.0074L9.64333 32.5459C9.37378 32.7022 9.15003 32.9266 8.9945 33.1966C8.83896 33.4666 8.75709 33.7728 8.75709 34.0844C8.75709 34.396 8.83896 34.7021 8.9945 34.9721C9.15003 35.2421 9.37378 35.4665 9.64333 35.6228L12.308 37.1613L9.64333 38.6998C9.37378 38.8561 9.15003 39.0805 8.9945 39.3505C8.83896 39.6205 8.75709 39.9266 8.75709 40.2382C8.75709 40.5498 8.83896 40.856 8.9945 41.126C9.15003 41.396 9.37378 41.6204 9.64333 41.7767L12.308 43.3152L9.64333 44.8536C9.37378 45.01 9.15003 45.2344 8.9945 45.5044C8.83896 45.7744 8.75709 46.0805 8.75709 46.3921C8.75709 46.7037 8.83896 47.0098 8.9945 47.2798C9.15003 47.5498 9.37378 47.7742 9.64333 47.9306L12.308 49.469L9.64333 51.0075C9.37378 51.1638 9.15003 51.3882 8.9945 51.6582C8.83896 51.9282 8.75709 52.2344 8.75709 52.546C8.75709 52.8576 8.83896 53.1637 8.9945 53.4337C9.15003 53.7037 9.37378 53.9281 9.64333 54.0844L12.308 55.6229L9.64333 57.1614C9.37378 57.3177 9.15003 57.5421 8.9945 57.8121C8.83896 58.0821 8.75709 58.3882 8.75709 58.6998C8.75709 59.0114 8.83896 59.3176 8.9945 59.5876C9.15003 59.8576 9.37378 60.082 9.64333 60.2383L12.308 61.7768L9.64333 63.3152C9.37378 63.4716 9.15003 63.696 8.9945 63.966C8.83896 64.236 8.75709 64.5421 8.75709 64.8537C8.75709 65.1653 8.83896 65.4714 8.9945 65.7414C9.15003 66.0114 9.37378 66.2358 9.64333 66.3922L12.308 67.9306L9.64333 69.4691C9.37378 69.6254 9.15003 69.8498 8.9945 70.1198C8.83896 70.3898 8.75709 70.696 8.75709 71.0076C8.75709 71.3192 8.83896 71.6253 8.9945 71.8953C9.15003 72.1653 9.37378 72.3897 9.64333 72.546L12.308 74.0845L9.64333 75.623C9.37378 75.7793 9.15003 76.0037 8.9945 76.2737C8.83896 76.5437 8.75709 76.8498 8.75709 77.1614C8.75709 77.473 8.83896 77.7791 8.9945 78.0492C9.15003 78.3192 9.37378 78.5436 9.64333 78.6999L12.308 80.2383L9.64333 81.7768C9.37378 81.9331 9.15003 82.1575 8.9945 82.4275C8.83896 82.6975 8.75709 83.0037 8.75709 83.3153C8.75709 83.6269 8.83896 83.933 8.9945 84.203C9.15003 84.473 9.37378 84.6974 9.64333 84.8537L12.308 86.3922L9.64333 87.9307C9.37378 88.087 9.15003 88.3114 8.9945 88.5814C8.83896 88.8514 8.75709 89.1575 8.75709 89.4691C8.75709 89.7807 8.83896 90.0869 8.9945 90.3569C9.15003 90.6269 9.37378 90.8513 9.64333 91.0076L12.308 92.5461L9.64333 94.0845C9.37378 94.2409 9.15003 94.4653 8.9945 94.7353C8.83896 95.0053 8.75709 95.3114 8.75709 95.623C8.75709 95.9346 8.83896 96.2407 8.9945 96.5107C9.15003 96.7807 9.37378 97.0051 9.64333 97.1615L12.308 98.6999C12.308 105.497 17.8181 111.008 24.6157 111.008H98.462C105.259 111.008 110.77 105.497 110.77 98.6999V49.469L67.6804 46.7761C64.2281 46.5601 61.5389 43.6967 61.5389 40.2382C61.5389 36.7798 64.2281 33.9164 67.6804 33.7004Z" fill="#3ECC5F"/>
<path fill-rule="evenodd" clip-rule="evenodd" d="M86.1543 111.008H104.616V86.3923H86.1543V111.008Z" fill="#3ECC5F"/>
<path fill-rule="evenodd" clip-rule="evenodd" d="M116.923 95.623C116.788 95.623 116.66 95.6457 116.529 95.6624L116.458 95.3854C117.569 94.9214 118.35 93.826 118.35 92.5467C118.35 91.7306 118.026 90.948 117.449 90.3709C116.872 89.7939 116.089 89.4697 115.273 89.4697C114.601 89.4721 113.949 89.6962 113.417 90.1073L113.211 89.9005C113.597 89.386 113.826 88.7546 113.826 88.0623C113.826 87.3534 113.581 86.6664 113.132 86.1174C112.684 85.5684 112.059 85.1911 111.365 85.0494C110.67 84.9076 109.948 85.01 109.32 85.3394C108.692 85.6687 108.198 86.2047 107.919 86.8568L107.646 86.786C107.662 86.6629 107.685 86.5276 107.685 86.3922C107.685 85.5761 107.361 84.7935 106.784 84.2165C106.207 83.6394 105.424 83.3152 104.608 83.3152C103.792 83.3152 103.009 83.6394 102.432 84.2165C101.855 84.7935 101.531 85.5761 101.531 86.3922C101.531 86.5276 101.554 86.6556 101.57 86.786L101.297 86.8568C101.018 86.2047 100.524 85.6687 99.8958 85.3394C99.268 85.01 98.5458 84.9076 97.8512 85.0494C97.1565 85.1911 96.5322 85.5684 96.0836 86.1174C95.6351 86.6664 95.3899 87.3534 95.3895 88.0623C95.3895 88.7546 95.6258 89.3854 96.0049 89.9005C94.8318 91.0457 93.9002 92.4144 93.2652 93.9258C92.6301 95.4372 92.3045 97.0605 92.3076 98.6999C92.3076 105.497 97.8178 111.008 104.615 111.008C110.363 111.008 115.175 107.069 116.529 101.737C116.652 101.754 116.788 101.777 116.923 101.777C117.739 101.777 118.522 101.453 119.099 100.876C119.676 100.299 120 99.516 120 98.6999C120 97.8839 119.676 97.1012 119.099 96.5242C118.522 95.9471 117.739 95.623 116.923 95.623" fill="#44D860"/>
<path fill-rule="evenodd" clip-rule="evenodd" d="M92.3076 74.0846H110.769V61.7769H92.3076V74.0846Z" fill="#3ECC5F"/>
<path d="M116.923 69.4691C117.331 69.4691 117.722 69.3071 118.011 69.0185C118.299 68.73 118.461 68.3387 118.461 67.9307C118.461 67.5227 118.299 67.1313 118.011 66.8428C117.722 66.5543 117.331 66.3922 116.923 66.3922C116.861 66.3922 116.791 66.4045 116.726 66.4119L116.69 66.2734C117.018 66.1365 117.289 65.8901 117.456 65.5761C117.623 65.2622 117.676 64.9002 117.606 64.5516C117.536 64.2029 117.348 63.8893 117.073 63.6639C116.798 63.4385 116.453 63.3153 116.098 63.3153C115.762 63.316 115.435 63.4281 115.17 63.6341L115.066 63.5307C115.268 63.2665 115.377 62.9435 115.378 62.6113C115.378 62.2567 115.255 61.9131 115.031 61.6385C114.806 61.3639 114.494 61.1752 114.147 61.1043C113.799 61.0335 113.438 61.0848 113.124 61.2496C112.81 61.4144 112.563 61.6826 112.424 62.0088C111.896 61.8611 111.343 61.7768 110.762 61.7768C107.364 61.7768 104.608 64.5325 104.608 67.9307C104.608 71.3288 107.364 74.0845 110.762 74.0845C111.337 74.0845 111.89 73.9996 112.424 73.8525C112.563 74.1788 112.81 74.4469 113.124 74.6118C113.438 74.7766 113.799 74.8279 114.147 74.757C114.494 74.6862 114.806 74.4975 115.031 74.2229C115.255 73.9483 115.378 73.6047 115.378 73.2501C115.378 72.9036 115.26 72.5873 115.066 72.3307C115.101 72.2969 115.136 72.2692 115.17 72.2273C115.435 72.4328 115.762 72.5449 116.098 72.5461C116.453 72.5461 116.798 72.4229 117.073 72.1975C117.348 71.9721 117.536 71.6584 117.606 71.3098C117.676 70.9612 117.623 70.5991 117.456 70.2852C117.289 69.9713 117.018 69.7249 116.69 69.5879L116.726 69.4495C116.791 69.4575 116.849 69.4691 116.923 69.4691Z" fill="#44D860"/>
<path fill-rule="evenodd" clip-rule="evenodd" d="M36.9233 32.546C36.5153 32.546 36.124 32.3839 35.8355 32.0954C35.547 31.8069 35.3849 31.4155 35.3849 31.0075C35.3832 29.7839 34.8965 28.6109 34.0313 27.7457C33.1661 26.8805 31.9931 26.3937 30.7695 26.3921C29.5459 26.3937 28.3729 26.8805 27.5077 27.7457C26.6425 28.6109 26.1557 29.7839 26.1541 31.0075C26.1541 31.4155 25.992 31.8069 25.7035 32.0954C25.415 32.3839 25.0236 32.546 24.6156 32.546C24.2076 32.546 23.8163 32.3839 23.5278 32.0954C23.2392 31.8069 23.0771 31.4155 23.0771 31.0075C23.0771 26.7657 26.5276 23.3152 30.7695 23.3152C35.0113 23.3152 38.4618 26.7657 38.4618 31.0075C38.4618 31.4155 38.2997 31.8069 38.0112 32.0954C37.7227 32.3839 37.3314 32.546 36.9233 32.546" fill="black"/>
<path fill-rule="evenodd" clip-rule="evenodd" d="M61.5381 111.008H98.4613C105.259 111.008 110.769 105.497 110.769 98.6999V55.6229H73.8458C67.0483 55.6229 61.5381 61.133 61.5381 67.9306V111.008Z" fill="#FFFF50"/>
<path d="M101.551 74.6999H70.757C70.5938 74.6999 70.4373 74.635 70.3218 74.5196C70.2064 74.4042 70.1416 74.2477 70.1416 74.0845C70.1416 73.9213 70.2064 73.7648 70.3218 73.6494C70.4373 73.534 70.5938 73.4691 70.757 73.4691H101.551C101.714 73.4691 101.871 73.534 101.986 73.6494C102.101 73.7648 102.166 73.9213 102.166 74.0845C102.166 74.2477 102.101 74.4042 101.986 74.5196C101.871 74.635 101.714 74.6999 101.551 74.6999Z" fill="black"/>
<path d="M101.551 87.0075H70.757C70.5938 87.0075 70.4373 86.9427 70.3218 86.8273C70.2064 86.7119 70.1416 86.5553 70.1416 86.3921C70.1416 86.2289 70.2064 86.0724 70.3218 85.957C70.4373 85.8416 70.5938 85.7767 70.757 85.7767H101.551C101.714 85.7767 101.871 85.8416 101.986 85.957C102.101 86.0724 102.166 86.2289 102.166 86.3921C102.166 86.5553 102.101 86.7119 101.986 86.8273C101.871 86.9427 101.714 87.0075 101.551 87.0075Z" fill="black"/>
<path d="M101.551 99.3153H70.757C70.5938 99.3153 70.4373 99.2505 70.3218 99.1351C70.2064 99.0197 70.1416 98.8631 70.1416 98.6999C70.1416 98.5367 70.2064 98.3802 70.3218 98.2648C70.4373 98.1494 70.5938 98.0845 70.757 98.0845H101.551C101.714 98.0845 101.871 98.1494 101.986 98.2648C102.101 98.3802 102.166 98.5367 102.166 98.6999C102.166 98.8631 102.101 99.0197 101.986 99.1351C101.871 99.2505 101.714 99.3153 101.551 99.3153Z" fill="black"/>
<path d="M101.551 68.6606H70.757C70.5938 68.6606 70.4373 68.5957 70.3218 68.4803C70.2064 68.3649 70.1416 68.2084 70.1416 68.0452C70.1416 67.882 70.2064 67.7255 70.3218 67.6101C70.4373 67.4946 70.5938 67.4298 70.757 67.4298H101.551C101.714 67.4298 101.871 67.4946 101.986 67.6101C102.101 67.7255 102.166 67.882 102.166 68.0452C102.166 68.2084 102.101 68.3649 101.986 68.4803C101.871 68.5957 101.714 68.6606 101.551 68.6606Z" fill="black"/>
<path d="M101.551 80.8537H70.757C70.5938 80.8537 70.4373 80.7889 70.3218 80.6735C70.2064 80.558 70.1416 80.4015 70.1416 80.2383C70.1416 80.0751 70.2064 79.9186 70.3218 79.8032C70.4373 79.6878 70.5938 79.6229 70.757 79.6229H101.551C101.714 79.6229 101.871 79.6878 101.986 79.8032C102.101 79.9186 102.166 80.0751 102.166 80.2383C102.166 80.4015 102.101 80.558 101.986 80.6735C101.871 80.7889 101.714 80.8537 101.551 80.8537Z" fill="black"/>
<path d="M101.551 93.1615H70.757C70.5938 93.1615 70.4373 93.0967 70.3218 92.9813C70.2064 92.8658 70.1416 92.7093 70.1416 92.5461C70.1416 92.3829 70.2064 92.2264 70.3218 92.111C70.4373 91.9956 70.5938 91.9307 70.757 91.9307H101.551C101.714 91.9307 101.871 91.9956 101.986 92.111C102.101 92.2264 102.166 92.3829 102.166 92.5461C102.166 92.7093 102.101 92.8658 101.986 92.9813C101.871 93.0967 101.714 93.1615 101.551 93.1615Z" fill="black"/>
<path fill-rule="evenodd" clip-rule="evenodd" d="M110.769 36.2997C110.762 36.2997 110.756 36.296 110.748 36.2966C108.841 36.3613 107.947 38.2634 107.153 39.9416C106.325 41.6954 105.684 42.8357 104.635 42.8013C103.465 42.7594 102.807 41.4462 102.103 40.0566C101.295 38.461 100.372 36.6505 98.4339 36.7182C96.5595 36.7822 95.6567 38.4376 94.8604 39.8979C94.013 41.4536 93.4364 42.3994 92.325 42.3557C91.1392 42.3127 90.5096 41.245 89.7798 40.0093C88.9675 38.6333 88.0271 37.0862 86.1268 37.1391C84.2844 37.2025 83.3791 38.6068 82.5804 39.8468C81.7354 41.1576 81.1434 41.9563 80.0173 41.9083C78.8031 41.8653 78.176 40.9853 77.4511 39.9533C76.6363 38.8006 75.7182 37.496 73.8234 37.5533C72.0216 37.6148 71.1157 38.7656 70.3182 39.7797C69.56 40.7422 68.968 41.504 67.7151 41.456C67.5519 41.4502 67.393 41.5094 67.2735 41.6206C67.1539 41.7319 67.0834 41.8861 67.0775 42.0493C67.0717 42.2125 67.1309 42.3713 67.2421 42.4909C67.3534 42.6105 67.5076 42.6809 67.6708 42.6868C69.5274 42.7483 70.4677 41.5791 71.2843 40.541C72.0086 39.6203 72.6339 38.8259 73.8646 38.784C75.0499 38.7336 75.6062 39.4702 76.4462 40.6579C77.2443 41.7865 78.1508 43.0665 79.9724 43.1317C81.8819 43.1957 82.8007 41.7686 83.6142 40.5059C84.3416 39.3773 84.9693 38.4031 86.1681 38.3619C87.2714 38.3206 87.8727 39.1926 88.7188 40.6265C89.517 41.9785 90.421 43.5102 92.2801 43.5779C94.2032 43.6443 95.1318 41.9656 95.9416 40.4794C96.6432 39.1945 97.3041 37.9809 98.477 37.9403C99.5804 37.9145 100.156 38.9219 101 40.605C101.795 42.176 102.697 43.9557 104.585 44.024L104.689 44.0259C106.575 44.0259 107.47 42.1336 108.262 40.4603C108.963 38.9834 109.626 37.5803 110.764 37.5231L110.769 36.2997Z" fill="black"/>
<path fill-rule="evenodd" clip-rule="evenodd" d="M49.2314 111.008H73.8469V86.3923H49.2314V111.008Z" fill="#3ECC5F"/>
<path fill-rule="evenodd" clip-rule="evenodd" d="M86.1536 95.623C86.0182 95.623 85.8902 95.6457 85.7597 95.6624L85.6883 95.3854C86.7997 94.9214 87.5806 93.826 87.5806 92.5467C87.5806 91.7306 87.2565 90.948 86.6794 90.3709C86.1024 89.7939 85.3198 89.4697 84.5037 89.4697C83.8317 89.4721 83.1793 89.6962 82.6477 90.1073L82.4415 89.9005C82.8274 89.386 83.0569 88.7546 83.0569 88.0623C83.0565 87.3534 82.8113 86.6664 82.3628 86.1174C81.9142 85.5684 81.2899 85.1911 80.5953 85.0494C79.9007 84.9076 79.1784 85.01 78.5506 85.3394C77.9228 85.6687 77.428 86.2047 77.1498 86.8568L76.876 86.786C76.8926 86.6629 76.9154 86.5276 76.9154 86.3922C76.9154 85.5761 76.5912 84.7935 76.0142 84.2165C75.4371 83.6394 74.6545 83.3152 73.8384 83.3152C73.0224 83.3152 72.2398 83.6394 71.6627 84.2165C71.0857 84.7935 70.7615 85.5761 70.7615 86.3922C70.7615 86.5276 70.7843 86.6556 70.8009 86.786L70.5271 86.8568C70.2489 86.2047 69.7541 85.6687 69.1263 85.3394C68.4985 85.01 67.7762 84.9076 67.0816 85.0494C66.387 85.1911 65.7627 85.5684 65.3141 86.1174C64.8656 86.6664 64.6204 87.3534 64.62 88.0623C64.62 88.7546 64.8563 89.3854 65.2354 89.9005C64.0623 91.0457 63.1307 92.4144 62.4956 93.9258C61.8606 95.4372 61.535 97.0605 61.5381 98.6999C61.5381 105.497 67.0483 111.008 73.8458 111.008C79.5935 111.008 84.4059 107.069 85.7597 101.737C85.8828 101.754 86.0182 101.777 86.1536 101.777C86.9696 101.777 87.7522 101.453 88.3293 100.876C88.9063 100.299 89.2305 99.516 89.2305 98.6999C89.2305 97.8839 88.9063 97.1012 88.3293 96.5242C87.7522 95.9471 86.9696 95.623 86.1536 95.623" fill="#44D860"/>
<path fill-rule="evenodd" clip-rule="evenodd" d="M49.2314 74.0846H73.8469V61.7769H49.2314V74.0846Z" fill="#3ECC5F"/>
<path d="M80 69.4691C80.4081 69.4691 80.7994 69.3071 81.0879 69.0185C81.3764 68.73 81.5385 68.3387 81.5385 67.9307C81.5385 67.5227 81.3764 67.1313 81.0879 66.8428C80.7994 66.5543 80.4081 66.3922 80 66.3922C79.9385 66.3922 79.8683 66.4045 79.8031 66.4119L79.7674 66.2734C80.0955 66.1365 80.3661 65.8901 80.533 65.5761C80.6999 65.2622 80.753 64.9002 80.6832 64.5516C80.6133 64.2029 80.4249 63.8893 80.1499 63.6639C79.8749 63.4385 79.5304 63.3153 79.1748 63.3153C78.8387 63.316 78.5124 63.4281 78.2468 63.6341L78.1434 63.5307C78.3449 63.2665 78.4543 62.9435 78.4548 62.6113C78.4547 62.2567 78.3321 61.9131 78.1078 61.6385C77.8835 61.3639 77.5712 61.1752 77.2238 61.1043C76.8764 61.0335 76.5152 61.0848 76.2012 61.2496C75.8873 61.4144 75.6399 61.6826 75.5009 62.0088C74.9736 61.8611 74.4203 61.7768 73.8394 61.7768C70.4412 61.7768 67.6855 64.5325 67.6855 67.9307C67.6855 71.3288 70.4412 74.0845 73.8394 74.0845C74.4142 74.0845 74.9674 73.9996 75.5009 73.8525C75.6399 74.1788 75.8873 74.4469 76.2012 74.6118C76.5152 74.7766 76.8764 74.8279 77.2238 74.757C77.5712 74.6862 77.8835 74.4975 78.1078 74.2229C78.3321 73.9483 78.4547 73.6047 78.4548 73.2501C78.4548 72.9036 78.3367 72.5873 78.1434 72.3307C78.1785 72.2969 78.213 72.2692 78.2468 72.2273C78.5126 72.4328 78.8388 72.5449 79.1748 72.5461C79.5304 72.5461 79.8749 72.4229 80.1499 72.1975C80.4249 71.9721 80.6133 71.6584 80.6832 71.3098C80.753 70.9612 80.6999 70.5991 80.533 70.2852C80.3661 69.9713 80.0955 69.7249 79.7674 69.5879L79.8031 69.4495C79.8677 69.4575 79.9262 69.4691 80 69.4691Z" fill="#44D860"/>
<path fill-rule="evenodd" clip-rule="evenodd" d="M86.1537 24.0844C86.0504 24.083 85.9475 24.0727 85.846 24.0536C85.747 24.0344 85.6502 24.0055 85.5568 23.9675C85.4645 23.9306 85.3722 23.8813 85.2922 23.8259L85.0583 23.6413C84.9968 23.5675 84.9229 23.4936 84.8737 23.4075C84.8182 23.3239 84.7706 23.2353 84.7315 23.1429C84.6941 23.0493 84.6654 22.9525 84.646 22.8536C84.6275 22.7552 84.6152 22.6505 84.6152 22.5459C84.6152 22.4413 84.6275 22.3429 84.646 22.2382C84.6645 22.1336 84.6952 22.0536 84.7322 21.949C84.7712 21.8566 84.8188 21.768 84.8743 21.6844L85.0589 21.4505C85.1328 21.389 85.2128 21.3152 85.2928 21.2659C85.3748 21.2081 85.4637 21.1605 85.5574 21.1244C85.6508 21.0863 85.7476 21.0575 85.8466 21.0382C86.0436 20.9952 86.2466 20.9952 86.4497 21.0382C86.5482 21.0567 86.6466 21.0875 86.7389 21.1244C86.8312 21.1613 86.9235 21.2105 87.0035 21.2659L87.2374 21.4505C87.3061 21.5242 87.3698 21.6023 87.4282 21.6844C87.4837 21.7679 87.5311 21.8565 87.5697 21.949C87.6066 22.0475 87.6312 22.1336 87.6559 22.2382C87.6749 22.3377 87.6852 22.4386 87.6866 22.5398C87.684 22.9474 87.5229 23.3381 87.2374 23.629C87.1636 23.6905 87.0835 23.7644 87.0035 23.8136C86.9215 23.8715 86.8326 23.919 86.7389 23.9552C86.6466 23.9921 86.5543 24.0167 86.4497 24.0413C86.3488 24.064 86.2454 24.0744 86.142 24.0721L86.1537 24.0844ZM98.4614 23.3152C98.0538 23.3126 97.6631 23.1515 97.3722 22.8659C97.3035 22.7923 97.2397 22.7142 97.1814 22.6321C97.1259 22.5485 97.0783 22.4599 97.0393 22.3675C97.0018 22.2739 96.9731 22.1771 96.9537 22.0782C96.9353 21.9798 96.923 21.8752 96.923 21.7705C96.9255 21.3629 97.0867 20.9723 97.3722 20.6813C97.446 20.6198 97.526 20.5459 97.606 20.4967C97.6881 20.4388 97.777 20.3913 97.8707 20.3552C97.964 20.3171 98.0609 20.2882 98.1599 20.269C98.3568 20.2259 98.566 20.2259 98.763 20.269C98.8614 20.2875 98.9599 20.3182 99.0522 20.3552C99.1445 20.3921 99.2368 20.4413 99.3168 20.4967L99.5507 20.6813C99.8373 20.9715 99.9986 21.3626 99.9999 21.7705C99.9985 21.8718 99.9882 21.9727 99.9691 22.0721C99.9507 22.1705 99.9199 22.269 99.883 22.3613C99.8419 22.4527 99.7946 22.5411 99.7414 22.6259C99.6831 22.708 99.6194 22.7862 99.5507 22.8598C99.4768 22.9213 99.3968 22.9952 99.3168 23.0444C99.2347 23.1022 99.1459 23.1498 99.0522 23.1859C98.9599 23.2229 98.8676 23.2475 98.763 23.2721C98.662 23.2948 98.5587 23.3051 98.4553 23.3029" fill="black"/>
</svg>
