<svg width="120" height="120" viewBox="0 0 120 120" fill="none" xmlns="http://www.w3.org/2000/svg">
<g clip-path="url(#clip0)">
<path d="M60 120C93.1371 120 120 93.1371 120 60C120 26.8629 93.1371 0 60 0C26.8629 0 0 26.8629 0 60C0 93.1371 26.8629 120 60 120Z" fill="#5C2D91"/>
<path opacity="0.1" d="M18.4127 16.875C12.3133 22.3103 7.38807 28.9339 3.93904 36.34C0.490015 43.746 -1.41019 51.7785 -1.64511 59.9449C-1.88003 68.1113 -0.4447 76.2396 2.57289 83.8317C5.59048 91.4238 10.1268 98.3196 15.9037 104.097C21.6806 109.873 28.5764 114.41 36.1685 117.427C43.7606 120.445 51.8889 121.88 60.0553 121.645C68.2217 121.41 76.2542 119.51 83.6602 116.061C91.0663 112.612 97.6899 107.687 103.125 101.587L18.4127 16.875Z" fill="white"/>
<path d="M13.8754 69.8437C13.5254 69.8493 13.1781 69.7821 12.8554 69.6466C12.5326 69.511 12.2415 69.31 12.0004 69.0563C11.7527 68.8115 11.557 68.5193 11.4249 68.1971C11.2928 67.875 11.2271 67.5294 11.2317 67.1813C11.2292 66.8334 11.2958 66.4885 11.4278 66.1666C11.5598 65.8447 11.7544 65.5523 12.0004 65.3063C12.2392 65.0482 12.5294 64.843 12.8524 64.7042C13.1753 64.5653 13.5239 64.4957 13.8754 64.5C14.2265 64.4991 14.5739 64.5702 14.8964 64.7089C15.2189 64.8476 15.5096 65.0509 15.7504 65.3063C16.0007 65.5501 16.1993 65.8417 16.3346 66.1638C16.4699 66.4859 16.539 66.8319 16.5379 67.1813C16.5412 67.5309 16.473 67.8776 16.3376 68.2C16.2022 68.5224 16.0024 68.8138 15.7504 69.0563C15.5073 69.3074 15.2158 69.5066 14.8935 69.6419C14.5713 69.7773 14.2249 69.8459 13.8754 69.8437Z" fill="white"/>
<path d="M51.1314 69.375H46.2189L28.6502 42.1125C28.2126 41.4408 27.848 40.7242 27.5627 39.975H27.4127C27.5797 41.5316 27.6423 43.0976 27.6002 44.6625V69.375H23.6064V35.1938H28.8002L45.9002 61.9688C46.6127 63.0813 47.0752 63.8438 47.2877 64.2563H47.3814C47.1836 62.589 47.1022 60.9099 47.1377 59.2313V35.1938H51.1314V69.375Z" fill="white"/>
<path d="M78.1687 69.375H60V35.1938H77.325V38.8125H64.0875V50.175H76.425V53.775H64.0875V65.625H78.1875L78.1687 69.375Z" fill="white"/>
<path d="M105 38.8125H95.0629V69.375H91.0691V38.8125H81.2441V35.1938H105V38.8125Z" fill="white"/>
<path d="M48.9757 92.625C47.622 93.2806 46.1288 93.5959 44.6257 93.5437C43.6268 93.5887 42.6299 93.4196 41.7018 93.0477C40.7737 92.6758 39.9358 92.1097 39.2444 91.3875C37.8667 89.8453 37.1408 87.8289 37.2194 85.7625C37.169 84.6436 37.3438 83.526 37.7335 82.476C38.1233 81.426 38.7199 80.465 39.4882 79.65C40.2368 78.883 41.1369 78.2802 42.1311 77.88C43.1253 77.4797 44.1919 77.2907 45.2632 77.325C46.5452 77.2812 47.8222 77.5046 49.0132 77.9812V79.8562C47.8666 79.2214 46.5736 78.8982 45.2632 78.9187C44.437 78.8955 43.6156 79.0509 42.8551 79.3746C42.0946 79.6982 41.413 80.1823 40.8569 80.7937C39.6876 82.1259 39.0824 83.8608 39.1694 85.6312C39.0819 87.3084 39.6462 88.9544 40.7444 90.225C41.2712 90.7914 41.9143 91.2372 42.6295 91.5317C43.3448 91.8262 44.1153 91.9625 44.8882 91.9312C46.3278 91.9689 47.7496 91.6054 48.9944 90.8812L48.9757 92.625Z" fill="#F2F2F2"/>
<path d="M56.6435 93.5437C55.8971 93.5679 55.1542 93.4314 54.4652 93.1435C53.7762 92.8556 53.157 92.423 52.6497 91.875C51.6244 90.7308 51.0921 89.2282 51.1685 87.6937C51.1217 86.8898 51.2351 86.0846 51.5023 85.325C51.7695 84.5653 52.185 83.8664 52.7247 83.2687C53.2756 82.7311 53.9309 82.3123 54.6501 82.0382C55.3693 81.7641 56.1371 81.6404 56.906 81.675C57.6328 81.6363 58.3593 81.7553 59.0358 82.024C59.7122 82.2926 60.3225 82.7044 60.8247 83.2312C61.8213 84.4322 62.324 85.9672 62.231 87.525C62.3097 89.106 61.7643 90.6547 60.7122 91.8375C60.1954 92.3961 59.5647 92.8375 58.8629 93.1318C58.161 93.4262 57.4042 93.5666 56.6435 93.5437V93.5437ZM56.7747 83.2875C56.259 83.2658 55.745 83.3607 55.271 83.5652C54.797 83.7698 54.3753 84.0786 54.0372 84.4687C53.3158 85.3977 52.956 86.557 53.0247 87.7312C52.9592 88.8705 53.3202 89.9934 54.0372 90.8812C54.3788 91.2659 54.8016 91.5697 55.2751 91.7708C55.7485 91.9718 56.2608 92.0651 56.7747 92.0437C57.2779 92.0734 57.7812 91.9875 58.2459 91.7925C58.7107 91.5975 59.1247 91.2986 59.456 90.9187C60.1377 89.9873 60.4696 88.8455 60.3935 87.6937C60.4676 86.5364 60.1361 85.3894 59.456 84.45C59.1293 84.0622 58.7171 83.7554 58.2519 83.5537C57.7867 83.352 57.2811 83.2609 56.7747 83.2875V83.2875Z" fill="#F2F2F2"/>
<path d="M70.9871 83.85C70.5821 83.5847 70.1013 83.4596 69.6184 83.4938C69.2406 83.5075 68.8721 83.6139 68.5451 83.8035C68.2182 83.9932 67.9428 84.2603 67.7434 84.5813C67.1853 85.4648 66.9166 86.5004 66.9746 87.5438V93.2813H65.0996V82.0313H66.9746V84.375C67.1807 83.6498 67.5907 82.9991 68.1559 82.5C68.6448 82.0757 69.2709 81.8426 69.9184 81.8438C70.2808 81.8275 70.6431 81.8784 70.9871 81.9938V83.85Z" fill="#F2F2F2"/>
<path d="M81.9758 88.125H74.0445C73.9913 89.1732 74.3325 90.2033 75.0008 91.0125C75.3483 91.3591 75.7652 91.6285 76.224 91.803C76.6828 91.9774 77.1732 92.0531 77.6633 92.025C78.9343 92.0123 80.1636 91.5695 81.1508 90.7687V92.4562C79.9915 93.2203 78.6187 93.5947 77.232 93.525C76.5324 93.5603 75.8335 93.4408 75.1853 93.175C74.5371 92.9093 73.9555 92.5038 73.482 91.9875C72.5059 90.7699 72.018 89.2326 72.1133 87.675C72.0459 86.1135 72.5755 84.585 73.5945 83.4C74.0583 82.8643 74.6353 82.4383 75.2839 82.153C75.9324 81.8676 76.6363 81.73 77.3445 81.75C77.9841 81.7142 78.6234 81.8238 79.2144 82.0706C79.8055 82.3174 80.3329 82.695 80.757 83.175C81.6204 84.3134 82.0462 85.724 81.957 87.15L81.9758 88.125ZM80.1008 86.6062C80.1388 85.7374 79.8737 84.8824 79.3508 84.1875C79.0942 83.8976 78.7754 83.6695 78.4183 83.5201C78.0611 83.3707 77.6749 83.304 77.2883 83.325C76.8848 83.32 76.4847 83.3992 76.1134 83.5574C75.7422 83.7155 75.408 83.9493 75.132 84.2437C74.5149 84.8966 74.1267 85.7323 74.0258 86.625L80.1008 86.6062Z" fill="#F2F2F2"/>
</g>
<defs>
<clipPath id="clip0">
<rect width="120" height="120" fill="white"/>
</clipPath>
</defs>
</svg>
