<svg width="120" height="120" viewBox="0 0 120 120" fill="none" xmlns="http://www.w3.org/2000/svg">
<g clip-path="url(#clip0)">
<path d="M73.5742 43.3425L61.563 54.5175L50.418 32.0363L56.1855 19.1063C57.6855 16.4813 60.0255 16.5113 61.488 19.1063L73.5742 43.3425Z" fill="#FFA000"/>
<path d="M50.4183 32.0362L61.5633 54.5174L16.6758 96.2737L50.4183 32.0362Z" fill="#F57F17"/>
<path d="M86.7108 26.2612C88.8558 24.1987 91.0758 24.9037 91.642 27.825L103.327 95.7187L64.597 118.969C63.247 119.719 59.647 120.041 59.647 120.041C59.647 120.041 56.3695 119.651 55.1208 118.916L16.6758 96.2737L86.7108 26.2612Z" fill="#FFCA28"/>
<path d="M50.4194 32.0358L16.6807 96.2733L31.7069 2.39203C32.2619 -0.532971 33.9269 -0.814221 35.4119 1.76578L50.4194 32.0358Z" fill="#FFA000"/>
</g>
<defs>
<clipPath id="clip0">
<rect width="120" height="120" fill="white"/>
</clipPath>
</defs>
</svg>
