<svg width="120" height="120" viewBox="0 0 120 120" fill="none" xmlns="http://www.w3.org/2000/svg">
<path d="M38.9424 87.6858L57.3922 106.147L108.155 55.3726H71.244L38.9424 87.6858Z" fill="#39CEFD"/>
<path d="M71.2438 3.05176e-05H108.155L29.7114 78.4552L11.25 59.9938L71.2438 3.05176e-05Z" fill="#39CEFD"/>
<path d="M57.3926 106.147L71.2444 119.988H108.156L75.854 87.686L57.3926 106.147Z" fill="#03569B"/>
<path d="M84.7727 96.6625L75.854 87.686L57.3926 106.147L84.7727 96.6625Z" fill="url(#paint0_linear)"/>
<path d="M38.9395 87.6795L57.4013 69.2176L75.8643 87.6795L57.4013 106.142L38.9395 87.6795Z" fill="#16B9FD"/>
<path d="M108.155 55.3727L75.8533 87.6859L108.155 119.999H71.2438L38.9305 87.6859L71.2438 55.3727H108.155ZM71.2438 3.05176e-05L11.25 59.9938L29.7114 78.4552L108.155 3.05176e-05H71.2438V3.05176e-05Z" fill="url(#paint1_radial)"/>
<defs>
<linearGradient id="paint0_linear" x1="62.7802" y1="109.71" x2="76.5298" y2="95.9606" gradientUnits="userSpaceOnUse">
<stop stop-color="#1A237E" stop-opacity="0.4"/>
<stop offset="1" stop-color="#1A237E" stop-opacity="0"/>
</linearGradient>
<radialGradient id="paint1_radial" cx="0" cy="0" r="1" gradientUnits="userSpaceOnUse" gradientTransform="translate(13.9724 8.17882) scale(146.804)">
<stop stop-color="white" stop-opacity="0.1"/>
<stop offset="1" stop-color="white" stop-opacity="0"/>
</radialGradient>
</defs>
</svg>
