<svg width="120" height="120" viewBox="0 0 120 120" fill="none" xmlns="http://www.w3.org/2000/svg">
<path d="M16.3219 91.4559L11.9219 88.9119L60.9939 3.91992L65.3939 6.46392L16.3219 91.4559Z" fill="#E10098"/>
<path d="M10.9102 82.12H109.062V87.208H10.9102V82.12Z" fill="#E10098"/>
<path d="M61.9455 113.328L12.8535 84.984L15.3975 80.584L64.4895 108.928L61.9455 113.328ZM104.594 39.448L55.4975 11.108L58.0415 6.70804L107.134 35.052L104.594 39.448Z" fill="#E10098"/>
<path d="M15.4102 39.4321L12.8662 35.0321L62.0022 6.68005L64.5462 11.0801L15.4102 39.4321Z" fill="#E10098"/>
<path d="M103.69 91.456L54.6098 6.45602L59.0098 3.91202L108.09 88.912L103.69 91.456ZM14.8018 31.656H19.8898V88.344H14.8018V31.656ZM100.114 31.656H105.202V88.344H100.114V31.656Z" fill="#E10098"/>
<path d="M61.0813 111.172L58.8613 107.324L101.561 82.6721L103.781 86.5201L61.0813 111.172Z" fill="#E10098"/>
<path d="M111.942 89.9991C110.521 92.4538 108.185 94.2451 105.445 94.9806C102.706 95.7161 99.7861 95.3358 97.3264 93.9231C94.8717 92.5017 93.0804 90.1653 92.3449 87.4257C91.6094 84.6862 91.9897 81.7668 93.4024 79.3071C94.8238 76.8523 97.1602 75.061 99.8997 74.3256C102.639 73.5901 105.559 73.9703 108.018 75.3831C113.166 78.3551 114.914 84.8831 111.938 89.9991H111.942ZM26.5704 40.6951C25.149 43.1498 22.8126 44.9411 20.0731 45.6766C17.3335 46.4121 14.4141 46.0318 11.9544 44.6191C9.49859 43.1976 7.70651 40.8605 6.97096 38.12C6.23541 35.3795 6.61639 32.4592 8.03039 29.9991C9.45181 27.5443 11.7882 25.753 14.5277 25.0175C17.2673 24.2821 20.1867 24.6623 22.6464 26.0751C25.1011 27.4965 26.8924 29.8329 27.6279 32.5724C28.3634 35.312 27.9831 38.2313 26.5704 40.6911V40.6951ZM8.06239 89.9991C6.64965 87.5393 6.26938 84.62 7.00487 81.8804C7.74037 79.1409 9.53167 76.8045 11.9864 75.3831C14.4461 73.9703 17.3655 73.5901 20.1051 74.3256C22.8446 75.061 25.181 76.8523 26.6024 79.3071C28.0151 81.7668 28.3954 84.6862 27.6599 87.4257C26.9244 90.1653 25.1331 92.5017 22.6784 93.9231C17.5304 96.8631 10.9984 95.1231 8.06239 90.0031V89.9991ZM93.4344 40.6991C92.0217 38.2393 91.6414 35.32 92.3769 32.5804C93.1124 29.8409 94.9037 27.5045 97.3584 26.0831C99.8181 24.6703 102.738 24.2901 105.477 25.0256C108.217 25.761 110.553 27.5523 111.974 30.0071C113.387 32.4668 113.767 35.3862 113.032 38.1257C112.296 40.8653 110.505 43.2017 108.05 44.6231C105.591 46.0358 102.671 46.4161 99.9318 45.6806C97.1922 44.9451 94.8558 43.1538 93.4344 40.6991V40.6991ZM60.0024 119.999C57.8868 119.999 55.8186 119.372 54.0596 118.196C52.3006 117.021 50.9296 115.35 50.1202 113.395C49.3108 111.441 49.0992 109.29 49.5122 107.215C49.9252 105.14 50.9443 103.234 52.4406 101.738C53.9369 100.243 55.8431 99.2244 57.9182 98.8121C59.9933 98.3998 62.144 98.6122 64.0984 99.4224C66.0527 100.233 67.7229 101.604 68.8977 103.364C70.0726 105.123 70.6992 107.191 70.6984 109.307C70.691 112.141 69.5616 114.857 67.5572 116.861C65.5528 118.864 62.8365 119.993 60.0024 119.999V119.999ZM60.0024 21.3911C58.5972 21.3932 57.2054 21.118 55.9067 20.5812C54.6081 20.0444 53.4281 19.2566 52.4345 18.263C51.4408 17.2693 50.6531 16.0894 50.1163 14.7907C49.5795 13.4921 49.3043 12.1003 49.3064 10.6951C49.3064 7.85884 50.4331 5.13878 52.4386 3.13327C54.4441 1.12775 57.1642 0.00106812 60.0004 0.00106812C62.8366 0.00106812 65.5567 1.12775 67.5622 3.13327C69.5677 5.13878 70.6944 7.85884 70.6944 10.6951C70.696 12.0996 70.4205 13.4907 69.8837 14.7886C69.347 16.0865 68.5595 17.2658 67.5663 18.259C66.5731 19.2521 65.3938 20.0396 64.0959 20.5764C62.798 21.1132 61.4069 21.3886 60.0024 21.3871" fill="#E10098"/>
</svg>
