<svg width="120" height="120" viewBox="0 0 120 120" fill="none" xmlns="http://www.w3.org/2000/svg">
<g clip-path="url(#clip0)">
<path d="M111.255 59.0962C111.255 51.87 106.287 45.7894 99.6172 44.0531L114.557 0H40.5191L55.4928 44.1937C49.0316 46.0687 44.271 52.0463 44.271 59.1338C44.271 64.3463 46.896 68.9662 50.8372 71.8144C49.2735 74.0381 47.4678 76.0894 45.4185 78.0338C41.5616 81.6469 37.2885 84.4275 32.6685 86.265C28.4985 83.4525 26.6928 78.4838 28.326 74.0363C34.6822 72.09 39.3041 66.15 39.3041 59.1675C39.3041 50.5856 32.3216 43.6369 23.7735 43.6369C15.1916 43.6369 8.21097 50.6194 8.21097 59.1994C8.21302 63.2902 9.83739 67.2133 12.7278 70.1081L11.9966 71.6025C9.6716 76.3969 7.02785 81.8175 6.02097 87.915C4.00535 100.074 7.30722 109.838 15.2647 115.361C19.7647 118.455 24.6772 120.017 29.9947 120.017C39.1316 120.017 48.4072 115.431 57.3697 110.983C63.7635 107.822 70.3635 104.522 76.8603 102.921C79.2603 102.33 81.7597 101.983 84.3978 101.601C89.7491 100.836 95.2728 100.037 100.242 97.1531C106.043 93.7837 110.005 88.1531 111.15 81.6919C112.018 76.7231 111.15 71.7206 108.927 67.3425C110.421 64.9425 111.252 62.13 111.252 59.1112L111.255 59.0962ZM104.481 59.0962C104.481 63.9262 100.555 67.8525 95.7247 67.8525C90.8947 67.8525 86.9685 63.9262 86.9685 59.0962C86.9685 57.5325 87.3847 56.04 88.1122 54.7537C88.3897 54.2662 88.7385 53.7787 89.0872 53.3662C89.4498 52.9411 89.8578 52.5569 90.3041 52.2206L90.3416 52.1831C90.6191 51.9769 90.9322 51.7669 91.2453 51.5569C91.2453 51.5569 91.2828 51.5569 91.2828 51.5194C91.4216 51.45 91.5603 51.345 91.6991 51.2756C91.7366 51.2756 91.7685 51.2381 91.8041 51.2381C91.9428 51.1687 92.1172 51.0994 92.2916 51.0319C92.466 50.9644 92.6385 50.8931 92.7791 50.8256C92.8166 50.8256 92.8485 50.7881 92.8841 50.7881C93.0228 50.7506 93.1616 50.6831 93.3003 50.6494C93.3378 50.6494 93.4053 50.6119 93.4391 50.6119L93.9266 50.5069H93.9641L94.4853 50.4019C94.5228 50.4019 94.5903 50.4019 94.6241 50.3644C94.7628 50.3644 94.9016 50.3269 95.0403 50.3269H95.2147C95.3891 50.3269 95.5616 50.2894 95.7697 50.2894H96.2197C96.3482 50.2839 96.4769 50.2959 96.6022 50.325H96.6716C96.9491 50.3625 97.2266 50.3944 97.506 50.4637C99.4789 50.8861 101.248 51.9714 102.518 53.5389C103.789 55.1064 104.484 57.0617 104.488 59.0794L104.481 59.0962ZM50.2128 6.94875H104.863L92.3197 43.95C91.7985 44.055 91.2772 44.2275 90.756 44.4L77.556 17.475L64.3185 44.2275C63.7972 44.0531 63.2422 43.95 62.6872 43.845L50.2128 6.94875ZM75.0528 56.0738C74.3928 52.8075 72.7278 49.89 70.3653 47.7356L77.5578 33.2138L84.8197 48.0487C82.6094 50.2346 81.098 53.0277 80.4772 56.0738H75.0528ZM57.6472 50.5838L58.1347 50.4788H58.2397C58.3785 50.4413 58.5172 50.4413 58.656 50.4094H58.7947C58.9335 50.4094 59.0385 50.3719 59.1772 50.3719H60.5328C60.6716 50.3719 60.7766 50.4094 60.8797 50.4094C60.9491 50.4094 60.9847 50.4094 61.0541 50.4469C61.1928 50.4844 61.2978 50.4844 61.4366 50.5162C61.4741 50.5162 61.506 50.5162 61.5753 50.5537L62.0628 50.6587C62.2372 50.6962 62.376 50.7281 62.5128 50.7975C62.5503 50.7975 62.5822 50.835 62.6516 50.835C62.7566 50.8725 62.8953 50.9044 62.9985 50.9738C63.036 50.9738 63.0678 51.0112 63.1035 51.0112C63.2422 51.0806 63.381 51.1162 63.5197 51.1856H63.5572C63.7183 51.2458 63.8704 51.3278 64.0091 51.4294C64.1835 51.4988 64.3222 51.6038 64.4591 51.6731C64.4966 51.6731 64.4966 51.7106 64.5285 51.7106C64.6672 51.78 64.7722 51.885 64.911 51.9544L64.9485 51.9919C65.3647 52.305 65.7472 52.6519 66.1297 52.9988L66.1672 53.0362C66.5141 53.4187 66.861 53.835 67.1422 54.2869C68.0743 55.712 68.5696 57.3784 68.5672 59.0813C68.5672 63.9113 64.641 67.8375 59.811 67.8375C54.981 67.8375 51.0547 63.9113 51.0547 59.0813C51.0172 55.0163 53.8335 51.5775 57.6547 50.6062L57.6472 50.5838ZM23.4603 50.34C28.2903 50.34 32.2166 54.2662 32.2166 59.0962C32.2166 63.9262 28.2903 67.8525 23.4603 67.8525C18.6303 67.8525 14.7041 63.9262 14.7041 59.0962C14.7041 54.2662 18.6303 50.34 23.4603 50.34V50.34ZM104.273 80.4619C103.508 84.9094 100.767 88.8 96.7353 91.1269C92.9478 93.315 88.2922 94.0106 83.3947 94.7081C80.7191 95.0906 77.9047 95.5069 75.1953 96.1669C67.9691 97.9388 61.0203 101.413 54.2797 104.749C45.6641 109.024 37.536 113.051 29.9947 113.051C26.0685 113.051 22.5603 111.939 19.2247 109.612C11.5822 104.332 11.9628 94.4306 12.8685 89.01C13.7028 83.9381 16.0297 79.1775 18.2535 74.6287C18.3922 74.3512 18.4972 74.1075 18.636 73.83C19.401 74.1075 20.1997 74.3175 21.036 74.4562C19.716 81.8212 23.4678 89.43 30.7635 93.1819L32.0835 93.8756L33.5085 93.3544C39.5891 91.1981 45.216 87.6919 50.1847 83.0006C52.9298 80.441 55.3561 77.5595 57.411 74.4187C58.2097 74.5575 59.0085 74.5931 59.811 74.5931C67.0372 74.5931 73.1178 69.6244 74.8541 62.955H80.691C82.4272 69.66 88.5097 74.5931 95.7341 74.5931C98.4976 74.5938 101.21 73.8495 103.587 72.4387C104.49 75.0637 104.768 77.7544 104.28 80.4638L104.273 80.4619Z" fill="#99424F"/>
</g>
<defs>
<clipPath id="clip0">
<rect width="120" height="120" fill="white"/>
</clipPath>
</defs>
</svg>
