<svg width="120" height="120" viewBox="0 0 120 120" fill="none" xmlns="http://www.w3.org/2000/svg">
<path d="M0 0H120V120H0V0Z" fill="#F7DF1E"/>
<path d="M31.5532 100.282L40.736 94.7245C42.5078 97.8656 44.1194 100.523 47.9851 100.523C51.6906 100.523 54.0273 99.074 54.0273 93.4359V55.0931H65.3039V93.5953C65.3039 105.275 58.4574 110.592 48.4684 110.592C39.4474 110.592 34.211 105.92 31.5527 100.281L31.5532 100.282ZM71.4291 99.0735L80.6109 93.7574C83.0282 97.7048 86.1698 100.604 91.7272 100.604C96.4002 100.604 99.3795 98.2682 99.3795 95.046C99.3795 91.1798 96.3186 89.8101 91.1633 87.5554L88.3448 86.346C80.2087 82.8834 74.812 78.5334 74.812 69.3506C74.812 60.8924 81.2559 54.4481 91.3251 54.4481C98.4941 54.4481 103.649 56.9456 107.354 63.4701L98.5738 69.1091C96.6402 65.6456 94.5467 64.2763 91.3246 64.2763C88.0218 64.2763 85.9274 66.3707 85.9274 69.1091C85.9274 72.4921 88.0218 73.8623 92.8546 75.9567L95.6736 77.1646C105.259 81.2732 110.656 85.4615 110.656 94.8852C110.656 105.036 102.682 110.593 91.9686 110.593C81.4973 110.593 74.7309 105.599 71.4286 99.074" fill="black"/>
</svg>
