<svg width="120" height="120" viewBox="0 0 120 120" fill="none" xmlns="http://www.w3.org/2000/svg">
<g clip-path="url(#clip0)">
<path d="M120 110.81V9.1908C120 5.02173 117.224 1.5033 113.42 0.378296L109.101 2.96298L61.164 54.0741L59.6612 58.7714L58.7832 63.2808L73.7317 119.146L76.044 120H110.81C115.886 120 120 115.885 120 110.81" fill="#EA6618"/>
<path d="M0 9.19031V110.809C0 113.952 1.57828 116.725 3.98438 118.382L6.93141 116.971L57.6717 62.6456L59.6611 58.7714L59.7356 55.0261L45.9262 2.48719L43.8342 0H9.19031C4.11469 0 0 4.11469 0 9.19031Z" fill="#D65813"/>
<path d="M59.6609 58.7719L113.42 0.377793C112.572 0.126718 111.693 -0.000689793 110.809 -0.000488042H43.835L59.6614 58.7714L59.6609 58.7719Z" fill="#E05E11"/>
<path d="M9.19078 120H76.0448L59.6616 58.7714L3.98438 118.382C5.51503 119.438 7.33121 120.003 9.19078 120" fill="#DE5C16"/>
<path d="M44.493 45.4828H51.161C53.8178 55.5075 56.8417 64.3041 60.2153 72.2414C64.0366 63.3117 66.8374 54.5086 69.2083 45.4823H75.5092C72.6874 56.6977 68.0711 68.0011 62.7911 79.6683H57.2177C52.1458 68.6123 47.8286 57.2447 44.493 45.4823V45.4828ZM22.4992 28.1133H37.3258V91.6931H22.4336V86.7919H31.5611V32.8838H22.4992V28.1133V28.1133ZM97.5785 32.8838H88.5166V86.7919H97.6432V91.6931H82.7514V28.1133H97.578V32.8838H97.5785Z" fill="white"/>
</g>
<defs>
<clipPath id="clip0">
<rect width="120" height="120" fill="white"/>
</clipPath>
</defs>
</svg>
