<svg width="120" height="120" viewBox="0 0 120 120" fill="none" xmlns="http://www.w3.org/2000/svg">
<path d="M107.457 54.4987C107.457 82.1902 85.0123 104.635 57.3208 104.635C29.6293 104.635 7.18457 82.1902 7.18457 54.4987C7.18457 26.8072 29.6293 4.36245 57.3208 4.36245C85.0123 4.33715 107.458 26.8072 107.458 54.4987" fill="#008DC2"/>
<path d="M29.411 38.0533C29.411 40.2639 27.6134 42.0615 25.4028 42.0615C23.1921 42.0615 21.3945 40.2639 21.3945 38.0533C21.3945 35.8427 23.1921 34.0451 25.4028 34.0451C25.9295 34.0436 26.4514 34.1463 26.9383 34.3473C27.4253 34.5482 27.8677 34.8434 28.2402 35.2159C28.6127 35.5884 28.9079 36.0308 29.1088 36.5177C29.3097 37.0047 29.4124 37.5265 29.411 38.0533" fill="white"/>
<path d="M30.0907 49.0572C30.0907 51.2678 28.2931 53.0654 26.0825 53.0654C23.8718 53.0654 22.0742 51.2678 22.0742 49.0572C22.0742 46.8465 23.8718 45.0489 26.0825 45.0489C26.6092 45.0475 27.1311 45.1502 27.618 45.3512C28.105 45.5521 28.5474 45.8473 28.9199 46.2198C29.2924 46.5922 29.5876 47.0347 29.7885 47.5216C29.9894 48.0086 30.0921 48.5304 30.0907 49.0572" fill="white"/>
<path d="M32.5438 60.7163C32.5438 62.9269 30.7462 64.7245 28.5356 64.7245C26.325 64.7245 24.5273 62.9269 24.5273 60.7163C24.5273 58.5057 26.325 56.7081 28.5356 56.7081C30.7469 56.684 32.5438 58.4816 32.5438 60.7163ZM38.0341 71.1616C38.0341 73.3723 36.2365 75.1699 34.0258 75.1699C31.8152 75.1699 30.0176 73.3723 30.0176 71.1616C30.0176 68.951 31.8152 67.1534 34.0258 67.1534C36.2365 67.1294 38.0341 68.927 38.0341 71.1616" fill="white"/>
<path d="M80.9559 85.7607C80.9559 87.9713 79.1583 89.769 76.9477 89.769C74.7371 89.769 72.9395 87.9713 72.9395 85.7607C72.9395 83.5501 74.7371 81.7525 76.9477 81.7525C79.1583 81.7525 80.9559 83.5501 80.9559 85.7607Z" fill="white"/>
<path d="M88.243 77.1364C88.243 79.347 86.4454 81.1446 84.2348 81.1446C82.0242 81.1446 80.2266 79.347 80.2266 77.1364C80.2266 74.9257 82.0242 73.1281 84.2348 73.1281C86.4454 73.1281 88.243 74.9264 88.243 77.1364Z" fill="white"/>
<path d="M67.1102 16.1671C67.1102 18.3777 65.3126 20.1753 63.102 20.1753C60.8914 20.1753 59.0938 18.3777 59.0938 16.1671C59.0938 13.9564 60.8914 12.1588 63.102 12.1588C65.3126 12.1588 67.1102 13.9564 67.1102 16.1671Z" fill="white"/>
<path d="M56.5679 12.4681C56.5679 14.6787 54.7703 16.4764 52.5597 16.4764C50.349 16.4764 48.5508 14.6851 48.5508 12.4681C48.5508 10.2511 50.3484 8.45987 52.559 8.45987C54.7697 8.45987 56.5673 10.2581 56.5673 12.4681" fill="white"/>
<path d="M84.9885 69.2667C99.7455 69.2667 111.708 57.3037 111.708 42.5467C111.708 27.7897 99.7455 15.8268 84.9885 15.8268C70.2315 15.8268 58.2686 27.7897 58.2686 42.5467C58.2686 57.3037 70.2315 69.2667 84.9885 69.2667Z" fill="#68B346" stroke="white" stroke-width="1.18069"/>
<path d="M48.3821 118.893C60.4559 118.893 70.2437 109.105 70.2437 97.0315C70.2437 84.9577 60.4559 75.1699 48.3821 75.1699C36.3083 75.1699 26.5205 84.9577 26.5205 97.0315C26.5205 109.105 36.3083 118.893 48.3821 118.893Z" fill="#68B346" stroke="white" stroke-width="1.18069"/>
<path d="M30.383 30.2557C38.4322 30.2557 44.9574 23.7305 44.9574 15.6813C44.9574 7.63208 38.4322 1.1069 30.383 1.1069C22.3338 1.1069 15.8086 7.63208 15.8086 15.6813C15.8086 23.7305 22.3338 30.2557 30.383 30.2557Z" fill="#68B346" stroke="white" stroke-width="1.18069"/>
</svg>
