<svg width="120" height="120" viewBox="0 0 120 120" fill="none" xmlns="http://www.w3.org/2000/svg">
<path d="M60.0008 70.6165C65.9189 70.6165 70.7165 65.8189 70.7165 59.9008C70.7165 53.9827 65.9189 49.1852 60.0008 49.1852C54.0827 49.1852 49.2852 53.9827 49.2852 59.9008C49.2852 65.8189 54.0827 70.6165 60.0008 70.6165Z" fill="#00D8FF"/>
<path fill-rule="evenodd" clip-rule="evenodd" d="M60.0007 38.1136C74.3879 38.1136 87.7533 40.1781 97.8308 43.6474C109.973 47.8275 117.438 54.1636 117.438 59.9008C117.438 65.8795 109.526 72.6107 96.4874 76.9307C86.6298 80.1967 73.6579 81.9016 60.0007 81.9016C45.9984 81.9016 32.7389 80.3014 22.7702 76.8949C10.158 72.584 2.56152 65.7657 2.56152 59.9008C2.56152 54.2101 9.68936 47.923 21.6606 43.7493C31.7756 40.2227 45.471 38.1136 59.9988 38.1136H60.0007Z" stroke="#00D8FF" stroke-width="2.73408"/>
<path fill-rule="evenodd" clip-rule="evenodd" d="M41.0345 49.07C48.2221 36.6069 56.6871 26.0602 64.727 19.0635C74.4137 10.6336 83.6321 7.33215 88.6019 10.198C93.7813 13.1848 95.6597 23.4015 92.8882 36.8545C90.7949 47.0257 85.7894 59.1141 78.9666 70.945C71.9712 83.0749 63.9612 93.7618 56.0309 100.694C45.996 109.466 36.2942 112.64 31.2138 109.71C26.2839 106.869 24.3987 97.5521 26.7636 85.0964C28.7619 74.5724 33.7765 61.6549 41.0321 49.0698L41.0345 49.07Z" stroke="#00D8FF" stroke-width="2.73408"/>
<path fill-rule="evenodd" clip-rule="evenodd" d="M41.0527 70.9768C33.8447 58.5278 28.9373 45.9243 26.8889 35.4648C24.4231 22.8624 26.1665 13.2269 31.1318 10.3527C36.306 7.35715 46.0956 10.832 56.3665 19.9519C64.1321 26.8469 72.1063 37.2186 78.9489 49.0384C85.9644 61.1566 91.2224 73.4337 93.2678 83.7659C95.856 96.841 93.7612 106.831 88.6855 109.77C83.7605 112.621 74.7481 109.602 65.1382 101.332C57.0186 94.3455 48.3317 83.5495 41.0527 70.9766V70.9768Z" stroke="#00D8FF" stroke-width="2.73408"/>
</svg>
