<svg width="120" height="120" viewBox="0 0 120 120" fill="none" xmlns="http://www.w3.org/2000/svg">
<g clip-path="url(#clip0)">
<path d="M83.1473 83.4734C87.5756 82.9924 90.9352 78.9875 90.7823 74.181C90.63 69.375 86.812 65.5299 82.2309 65.5299H81.9258C77.1914 65.6902 73.5267 69.8554 73.6795 74.8218C73.8323 77.225 74.7483 79.3076 76.1227 80.7495C70.9308 91.4837 62.9901 99.3338 51.0792 105.902C42.9858 110.388 34.5872 111.99 26.1886 110.869C19.3167 109.908 13.972 106.704 10.612 101.416C5.72578 93.5664 5.26781 85.0751 9.39093 76.5842C12.2925 70.4962 16.8731 66.0103 19.7747 63.7674C19.1639 61.6848 18.2475 58.1603 17.7895 55.5972C-4.35282 72.419 -2.06204 95.1685 4.65703 105.902C9.69609 113.913 19.9275 118.879 31.2277 118.879C34.2816 118.879 37.3355 118.559 40.3898 117.758C59.9362 113.753 74.7487 101.577 83.1473 83.4734V83.4734ZM110.024 63.6076C98.4178 49.3488 81.315 41.4988 61.7686 41.4988H59.3255C57.9511 38.6151 55.0495 36.6923 51.8428 36.6923H51.5372C46.8037 36.8526 43.1391 41.0179 43.2914 45.9847C43.4442 50.7907 47.2617 54.6358 51.8428 54.6358H52.148C55.5075 54.4755 58.4091 52.2326 59.6306 49.1885H62.3794C73.9852 49.1885 84.9797 52.713 94.9059 59.6021C102.541 64.8891 108.038 71.7782 111.092 80.1087C113.688 86.8375 113.535 93.406 110.787 99.0136C106.511 107.504 99.3342 112.151 89.8664 112.151C83.7581 112.151 77.9555 110.228 74.9011 108.786C73.2216 110.388 70.1672 112.951 68.0292 114.554C74.5959 117.758 81.315 119.52 87.7284 119.52C102.388 119.52 113.23 111.029 117.353 102.538C121.782 93.2457 121.476 77.225 110.024 63.6076V63.6076ZM32.4492 86.1963C32.602 91.0028 36.4195 94.8474 41.0006 94.8474H41.3062C46.0402 94.6876 49.7048 90.5218 49.552 85.5555C49.3997 80.749 45.5817 76.9044 41.0006 76.9044H40.6955C40.3898 76.9044 39.9314 76.9044 39.6267 77.0642C33.3656 66.1701 30.7697 54.3152 31.6861 41.4983C32.2964 31.8858 35.3508 23.5548 40.6955 16.6657C45.1237 10.738 53.6751 7.85425 59.4783 7.69442C75.6647 7.37379 82.5361 28.5211 82.9945 37.0124C84.9797 37.4929 88.3392 38.6146 90.63 39.4157C88.7972 13.4623 73.5267 0.00469971 58.8675 0.00469971C45.1237 0.00469971 32.4492 10.4183 27.4097 25.7982C20.3855 46.3048 24.9666 66.0103 33.518 81.5506C32.7548 82.6718 32.2964 84.4343 32.4492 86.1968V86.1963Z" fill="#764ABC"/>
</g>
<defs>
<clipPath id="clip0">
<rect width="120" height="120" fill="white"/>
</clipPath>
</defs>
</svg>
