<svg width="120" height="120" viewBox="0 0 120 120" fill="none" xmlns="http://www.w3.org/2000/svg">
<g clip-path="url(#clip0)">
<path d="M103.301 66.675C99.1052 66.6994 95.4733 67.7062 92.4264 69.2062C91.3014 66.9787 90.1764 65.0344 89.9889 63.5812C89.7771 61.8937 89.5202 60.8625 89.7771 58.8469C90.034 56.8313 91.2077 53.9719 91.2077 53.7375C91.1852 53.5256 90.949 52.4944 88.5358 52.4719C86.1227 52.4494 84.0358 52.9406 83.8015 53.5744C83.3828 54.7453 83.0457 55.9438 82.7927 57.1613C82.3708 59.3644 77.9646 67.17 75.4558 71.2725C74.6346 69.6788 73.9314 68.2725 73.7908 67.1475C73.5789 65.46 73.3221 64.4287 73.579 62.4131C73.8358 60.3975 75.0096 57.5381 75.0096 57.3038C74.9871 57.0919 74.7508 56.0606 72.3377 56.0381C69.9246 56.0156 67.8377 56.5069 67.6033 57.1406C67.369 57.7744 67.1102 59.2744 66.5946 60.7275C66.1014 62.1806 60.2421 75.2137 58.7196 78.6112C57.9452 80.3456 57.2664 81.7294 56.7733 82.6669C56.2802 83.6044 56.7508 82.7381 56.704 82.8319L56.0477 84.075V84.0975C55.7196 84.6844 55.3671 85.2469 55.2039 85.2469C55.0877 85.2469 54.8514 83.6756 55.2508 81.5194C56.1189 76.995 58.2283 69.9394 58.2039 69.6825C58.2039 69.5663 58.6033 68.3231 56.8446 67.6894C55.1327 67.0556 54.5233 68.1112 54.3827 68.1112C54.2421 68.1112 54.1239 68.4863 54.1239 68.4863C54.1239 68.4863 56.0233 60.54 50.4902 60.54C47.0214 60.54 42.2402 64.3144 39.8721 67.7588L27.9171 74.2987L27.6583 74.0175C20.9589 66.8625 8.55957 61.8 9.0752 52.1906C9.2627 48.6975 10.4815 39.4856 32.8877 28.3294C51.2402 19.1888 65.9383 21.6956 68.4939 27.2738C72.1277 35.2425 60.6415 50.055 41.5615 52.1925C34.2958 53.0138 30.4746 50.1994 29.5127 49.1456C28.5039 48.0431 28.3633 47.9963 27.9883 48.2081C27.3789 48.5363 27.7539 49.5206 27.9883 50.1075C28.5508 51.585 30.8946 54.21 34.8789 55.5225C38.3721 56.6719 46.9033 57.3038 57.2177 53.3194C68.7733 48.8419 77.7977 36.42 75.1483 26.0381C72.4521 15.4669 54.9208 11.9981 38.3477 17.8819C28.4814 21.3938 17.8127 26.8763 10.1252 34.0725C0.965823 42.6038 -0.487301 50.0587 0.120199 53.1525C2.25395 64.1925 17.4639 71.3887 23.5577 76.71L22.7139 77.1787C19.6671 78.6787 8.06457 84.75 5.15832 91.1719C1.87707 98.4375 5.67395 103.665 8.2052 104.368C16.0333 106.549 24.0489 102.634 28.3858 96.1875C32.6983 89.7412 32.1827 81.375 30.1914 77.5537L30.1202 77.4131L32.5108 76.0069C34.0577 75.0919 35.5821 74.2481 36.9171 73.5225C36.1671 75.5625 35.6271 77.9756 35.3458 81.4913C35.0177 85.6163 36.7052 90.96 38.9327 93.0712C39.9171 93.9862 41.089 94.0087 41.8165 94.0087C44.3946 94.0087 45.5664 91.875 46.8564 89.3212C48.4502 86.2031 49.8565 82.5937 49.8565 82.5937C49.8565 82.5937 48.0977 92.3681 52.9033 92.3681C54.6621 92.3681 56.4189 90.0937 57.2158 88.9219V88.9444C57.2158 88.9444 57.2627 88.8731 57.3565 88.71C57.544 88.4287 57.6377 88.2638 57.6377 88.2638V88.2169C58.3408 86.9981 59.9121 84.2081 62.2558 79.5919C65.2802 73.6388 68.1865 66.1856 68.1865 66.1856C68.1865 66.1856 68.4677 68.0138 69.3358 71.0138C69.8515 72.795 70.9765 74.7413 71.8446 76.6387L70.7196 78.1856L70.7421 78.21C70.1421 79.005 69.5245 79.7864 68.8896 80.5538C66.499 83.4131 63.6396 86.6719 63.2646 87.6094C62.8183 88.7119 62.9121 89.5312 63.7802 90.1875C64.4139 90.6562 65.5389 90.75 66.7333 90.6562C68.8896 90.5156 70.3896 89.9756 71.1396 89.6475C72.4927 89.1651 73.7709 88.4941 74.9364 87.6544C77.2802 85.92 78.7108 83.4581 78.5702 80.1769C78.4989 78.3713 77.914 76.59 77.1865 74.9025L77.8202 73.965C81.5233 68.55 84.3827 62.5969 84.3827 62.5969C84.3827 62.5969 84.664 64.425 85.5321 67.425C85.9783 68.9494 86.869 70.6125 87.6658 72.2531C84.1971 75.09 82.0164 78.3713 81.2664 80.5275C79.8827 84.5119 80.9608 86.3175 83.0008 86.7394C83.9158 86.9269 85.2283 86.505 86.2127 86.0831C87.4314 85.6837 88.909 85.005 90.2683 83.9962C92.6121 82.2619 94.8621 79.8469 94.7458 76.59C94.6746 75.09 94.2771 73.6125 93.7371 72.2062C96.6902 70.9875 100.511 70.2844 105.362 70.8694C115.793 72.0881 117.855 78.6038 117.456 81.3225C117.056 84.0413 114.878 85.5413 114.15 86.01C113.423 86.4563 113.188 86.6194 113.26 86.9475C113.353 87.4406 113.681 87.4162 114.315 87.3225C115.183 87.1819 119.8 85.095 119.987 80.0794C120.268 73.6331 114.15 66.6019 103.3 66.6731L103.301 66.675ZM22.8564 93.7969C19.4102 97.5713 14.5596 99 12.4971 97.7813C10.2696 96.4913 11.1377 90.9375 15.3808 86.9287C17.9589 84.4912 21.3114 82.2412 23.5146 80.8575L25.6483 79.5675C25.7889 79.4738 25.8827 79.4269 25.8827 79.4269C26.0477 79.3331 26.2352 79.215 26.4227 79.0988C27.9939 84.8175 26.4939 89.8331 22.8602 93.795L22.8564 93.7969ZM48.0564 76.6631C46.8602 79.5938 44.329 87.1162 42.8065 86.6944C41.494 86.3419 40.6971 80.6475 42.5477 75.0206C43.4852 72.1838 45.4783 68.8088 46.6502 67.4963C48.5496 65.3869 50.6121 64.6837 51.1277 65.55C51.7371 66.675 48.8064 74.8313 48.0564 76.6613V76.6631ZM68.8464 86.6006C68.3308 86.8594 67.8621 87.0469 67.6502 86.9062C67.4852 86.8125 67.8621 86.46 67.8621 86.46C67.8621 86.46 70.4646 83.67 71.4958 82.3819L73.5358 79.7794V80.0606C73.5358 83.4356 70.3015 85.6856 68.8483 86.6006H68.8464ZM84.8777 82.9444C84.5027 82.6631 84.5496 81.795 85.8152 79.0762C86.3083 77.9981 87.4333 76.1925 89.3777 74.4825C89.6121 75.1856 89.7527 75.8662 89.7302 76.4981C89.7058 80.7169 86.7058 82.2881 84.8777 82.9444Z" fill="#CF649A"/>
</g>
<defs>
<clipPath id="clip0">
<rect width="120" height="120" fill="white"/>
</clipPath>
</defs>
</svg>
