<svg width="120" height="120" viewBox="0 0 120 120" fill="none" xmlns="http://www.w3.org/2000/svg">
<path fill-rule="evenodd" clip-rule="evenodd" d="M0 60L0 120H60H120L120 60L120 0H60H0L0 60Z" fill="#007ACC"/>
<path fill-rule="evenodd" clip-rule="evenodd" d="M26.5366 60.3981L26.4985 65.3123H34.308H42.1175L42.1175 87.5028V109.693H47.6413H53.1651V87.5028L53.1651 65.3123H60.9747H68.7842V60.4933C68.7842 57.8266 68.727 55.5981 68.6508 55.5409C68.5937 55.4647 59.0889 55.4266 47.5651 55.4457L26.5937 55.5028L26.5366 60.3981Z" fill="white"/>
<path fill-rule="evenodd" clip-rule="evenodd" d="M96.8284 55.3633C99.876 56.1252 102.2 57.4775 104.333 59.6871C105.438 60.868 107.076 63.0204 107.209 63.5347C107.247 63.6871 102.028 67.1918 98.8665 69.1537C98.7522 69.2299 98.2951 68.7347 97.7808 67.9728C96.2379 65.7252 94.6189 64.7537 92.1427 64.5823C88.5046 64.3347 86.1618 66.2394 86.1808 69.4204C86.1808 70.3537 86.3141 70.9061 86.6951 71.668C87.4951 73.3252 88.9808 74.3156 93.6475 76.3347C102.238 80.0299 105.914 82.468 108.2 85.9347C110.752 89.8013 111.324 95.9728 109.59 100.563C107.686 105.554 102.962 108.944 96.3141 110.068C94.257 110.43 89.3808 110.373 87.1713 109.973C82.3522 109.116 77.7808 106.735 74.9618 103.611C73.857 102.392 71.7046 99.2109 71.838 98.9823C71.8951 98.9061 72.3903 98.6014 72.9427 98.2775C73.476 97.9728 75.4951 96.8109 77.3999 95.7061L80.8475 93.7061L81.5713 94.7728C82.5808 96.3156 84.7903 98.4299 86.1237 99.1347C89.9522 101.154 95.2094 100.868 97.7999 98.5442C98.9046 97.5347 99.3618 96.4871 99.3618 94.9442C99.3618 93.5537 99.1903 92.9442 98.4665 91.8966C97.5332 90.5633 95.6284 89.4394 90.2189 87.0966C84.0284 84.4299 81.3618 82.7728 78.9237 80.1442C77.5141 78.6204 76.1808 76.1823 75.6284 74.1442C75.1713 72.449 75.057 68.2014 75.4189 66.4871C76.6951 60.5061 81.2094 56.3347 87.7237 55.0966C89.838 54.6966 94.7522 54.849 96.8284 55.3633Z" fill="white"/>
</svg>
