<svg width="120" height="120" viewBox="0 0 120 120" fill="none" xmlns="http://www.w3.org/2000/svg">
<path d="M110.775 92.4863L62.1373 120V98.5763L92.4373 81.9037L110.775 92.4863ZM114.105 89.475V31.95L96.3148 42.2325V79.215L114.105 89.475ZM9.23234 92.4863L57.8623 120V98.5763L27.5436 81.9L9.23234 92.4863ZM5.90234 89.475V31.95L23.6923 42.2325V79.215L5.90234 89.475ZM7.98734 28.215L57.8623 0V20.7075L25.6498 38.4375L7.98734 28.215ZM112.012 28.215L62.1373 0V20.7075L94.3498 38.4187L112.012 28.215Z" fill="#8ED6FB"/>
<path d="M57.8625 94.6388L27.96 78.1875V45.6225L57.8625 62.8875V94.6388ZM62.1375 94.6388L92.0437 78.2025V45.615L62.1375 62.8875V94.6388ZM29.985 41.8575L60 25.3613L90.015 41.8613L60 59.1863L29.985 41.8575Z" fill="#1C78C0"/>
</svg>
