<svg width="20" height="20" viewBox="0 0 20 20" fill="none" xmlns="http://www.w3.org/2000/svg">
<path d="M18.47 1.77605e-05H1.53C1.33958 -0.00262686 1.1505 0.0322653 0.973563 0.102702C0.796628 0.173138 0.635301 0.277738 0.498795 0.41053C0.362289 0.543321 0.253279 0.701702 0.177989 0.876627C0.1027 1.05155 0.062606 1.2396 0.0599976 1.43002V18.57C0.062606 18.7604 0.1027 18.9485 0.177989 19.1234C0.253279 19.2983 0.362289 19.4567 0.498795 19.5895C0.635301 19.7223 0.796628 19.8269 0.973563 19.8973C1.1505 19.9678 1.33958 20.0027 1.53 20H18.47C18.6604 20.0027 18.8495 19.9678 19.0264 19.8973C19.2034 19.8269 19.3647 19.7223 19.5012 19.5895C19.6377 19.4567 19.7467 19.2983 19.822 19.1234C19.8973 18.9485 19.9374 18.7604 19.94 18.57V1.43002C19.9374 1.2396 19.8973 1.05155 19.822 0.876627C19.7467 0.701702 19.6377 0.543321 19.5012 0.41053C19.3647 0.277738 19.2034 0.173138 19.0264 0.102702C18.8495 0.0322653 18.6604 -0.00262686 18.47 1.77605e-05ZM6.09 16.74H3.09V7.74002H6.09V16.74ZM4.59 6.48002C4.17626 6.48002 3.77947 6.31566 3.48691 6.0231C3.19435 5.73055 3.03 5.33376 3.03 4.92002C3.03 4.50628 3.19435 4.10949 3.48691 3.81693C3.77947 3.52437 4.17626 3.36002 4.59 3.36002C4.80969 3.3351 5.03217 3.35687 5.24287 3.4239C5.45357 3.49093 5.64774 3.60171 5.81265 3.74898C5.97757 3.89625 6.10952 4.0767 6.19987 4.2785C6.29021 4.4803 6.33692 4.69891 6.33692 4.92002C6.33692 5.14112 6.29021 5.35973 6.19987 5.56154C6.10952 5.76334 5.97757 5.94378 5.81265 6.09106C5.64774 6.23833 5.45357 6.3491 5.24287 6.41613C5.03217 6.48316 4.80969 6.50493 4.59 6.48002ZM16.91 16.74H13.91V11.91C13.91 10.7 13.48 9.91002 12.39 9.91002C12.0527 9.91249 11.7242 10.0183 11.4488 10.2132C11.1735 10.4081 10.9645 10.6827 10.85 11C10.7717 11.2351 10.7378 11.4826 10.75 11.73V16.73H7.75C7.75 16.73 7.75 8.55002 7.75 7.73002H10.75V9.00002C11.0225 8.52712 11.4189 8.13754 11.8964 7.87322C12.374 7.6089 12.9146 7.47987 13.46 7.50002C15.46 7.50002 16.91 8.79002 16.91 11.56V16.74Z" fill="black"/>
</svg>
